<svg id="Layer_1" data-name="Layer 1" xmlns="http://www.w3.org/2000/svg" viewBox="0 0 205.14 19.65"><defs><style>.cls-1{fill:#01bfff;}</style></defs><title>plecologonew</title><path class="cls-1" d="M9.44,1.51A6.21,6.21,0,0,0,5,.08H.05l0,6H1.18V1.14H4.92A5.16,5.16,0,0,1,8.59,2.26,4.28,4.28,0,0,1,9.71,5.47a5.74,5.74,0,0,1,0,.6h1.18c0-.19,0-.39,0-.59A5.25,5.25,0,0,0,9.44,1.51ZM9.29,7.57C8.63,9,7.17,9.69,4.9,9.68H1.17V7.57H0L0,18.92H1.14l0-8.19H5A6.37,6.37,0,0,0,9.36,9.42a4.17,4.17,0,0,0,1.2-1.85Z"/><path class="cls-1" d="M15,18l0-10.4H13.89l0,11.39,7.86,0V18ZM13.91.11l0,6H15l0-6Z"/><path class="cls-1" d="M24.35.14l0,5.93h1.16V1.16l8,0v-1ZM25.45,18l0-7.94,7.27,0v-1l-7.27,0V7.57H24.33L24.3,19l9.19,0V18Z"/><path class="cls-1" d="M49.91,1.61A8.53,8.53,0,0,0,44.65,0a8.07,8.07,0,0,0-4.38,1.22,8.29,8.29,0,0,0-3,3.42,9.87,9.87,0,0,0-.56,1.43h1.23a7.63,7.63,0,0,1,.41-1A7.06,7.06,0,0,1,41,2.15a6.68,6.68,0,0,1,3.69-1,7.44,7.44,0,0,1,4.49,1.33A7.28,7.28,0,0,1,51.71,6h1.2A8.82,8.82,0,0,0,49.91,1.61Zm1.78,11.7A7.21,7.21,0,0,1,49.1,16.8a7.44,7.44,0,0,1-4.5,1.31,6.75,6.75,0,0,1-3.68-1,7.1,7.1,0,0,1-2.6-3,10,10,0,0,1-1-4.5,11.06,11.06,0,0,1,.18-2H36.34a12.21,12.21,0,0,0-.17,2,11.3,11.3,0,0,0,1.06,5,8.16,8.16,0,0,0,3,3.41,8,8,0,0,0,4.38,1.23,8.44,8.44,0,0,0,5.26-1.56,8.74,8.74,0,0,0,3-4.35Z"/><path class="cls-1" d="M72.91,7.57H71.73a11.21,11.21,0,0,1,.19,2.14,9.84,9.84,0,0,1-1,4.49,7.31,7.31,0,0,1-2.7,3,7.21,7.21,0,0,1-10.29-3,9.7,9.7,0,0,1-1-4.49,10.86,10.86,0,0,1,.19-2.1H55.94a11.78,11.78,0,0,0-.18,2.09,10.61,10.61,0,0,0,1.11,5A8.43,8.43,0,0,0,60,18.07a8.68,8.68,0,0,0,8.91,0A8.4,8.4,0,0,0,72,14.68a10.85,10.85,0,0,0,1.12-5A11.37,11.37,0,0,0,72.91,7.57ZM58,5.17a7.36,7.36,0,0,1,2.69-3A7.25,7.25,0,0,1,71,5.21a8.25,8.25,0,0,1,.37.86h1.22A9.2,9.2,0,0,0,72,4.73a8.35,8.35,0,0,0-3.07-3.42A8.47,8.47,0,0,0,64.46.08,8.33,8.33,0,0,0,60,1.29a8.42,8.42,0,0,0-3.12,3.4,8.35,8.35,0,0,0-.57,1.38h1.24A7.19,7.19,0,0,1,58,5.17Z"/><path class="cls-1" d="M89.46,11.25a5.9,5.9,0,0,0-2.13-1.68,24.47,24.47,0,0,0-3.24-1.14c-1-.33-1.87-.61-2.47-.85a4.22,4.22,0,0,1-1.5-1A2.22,2.22,0,0,1,79.54,5a2.22,2.22,0,0,1,.86-1.88,4.34,4.34,0,0,1,4.75.12,3.16,3.16,0,0,1,1.11,1.83H89.9a5.12,5.12,0,0,0-2.14-3.64A8.31,8.31,0,0,0,82.69,0a9.2,9.2,0,0,0-3.56.62,5.22,5.22,0,0,0-2.37,1.77,4.38,4.38,0,0,0-.84,2.67,4.38,4.38,0,0,0,.85,2.81,5.66,5.66,0,0,0,2.09,1.64A24.32,24.32,0,0,0,82,10.67c1.06.32,1.9.61,2.51.86a4.32,4.32,0,0,1,1.54,1,2.33,2.33,0,0,1,.62,1.67,2.47,2.47,0,0,1-.85,1.92,3.44,3.44,0,0,1-2.39.74A4,4,0,0,1,80.73,16a3.28,3.28,0,0,1-1.16-2.11H76a5.16,5.16,0,0,0,1.14,2.84,6.66,6.66,0,0,0,2.69,1.92,10.44,10.44,0,0,0,3.82.69,8.77,8.77,0,0,0,3.71-.71,5.16,5.16,0,0,0,2.25-1.91,4.73,4.73,0,0,0,.75-2.58A4.52,4.52,0,0,0,89.46,11.25Z"/><path class="cls-1" d="M106.56.33l-4.82,8.73L97,.31H93.05l7,12,0,6.87h3.41V12.33l7-12Z"/><path class="cls-1" d="M126.65,11.35a5.81,5.81,0,0,0-2.13-1.68,23.48,23.48,0,0,0-3.24-1.14c-1-.33-1.86-.61-2.47-.85a4.05,4.05,0,0,1-1.49-1,2.26,2.26,0,0,1-.59-1.6,2.21,2.21,0,0,1,.87-1.88,4.34,4.34,0,0,1,4.75.12,3.16,3.16,0,0,1,1.11,1.83h3.64A5.15,5.15,0,0,0,125,1.53a8.32,8.32,0,0,0-5.08-1.4,9.15,9.15,0,0,0-3.55.62A5.17,5.17,0,0,0,114,2.52a4.38,4.38,0,0,0-.84,2.67A4.36,4.36,0,0,0,114,8a5.71,5.71,0,0,0,2.08,1.64,23.41,23.41,0,0,0,3.18,1.13c1.07.32,1.91.61,2.52.86a4.41,4.41,0,0,1,1.54,1,2.28,2.28,0,0,1,.61,1.67,2.43,2.43,0,0,1-.85,1.92,3.41,3.41,0,0,1-2.38.74,4,4,0,0,1-2.74-.89A3.19,3.19,0,0,1,116.77,14h-3.62a5.18,5.18,0,0,0,1.15,2.84A6.66,6.66,0,0,0,117,18.75a10.44,10.44,0,0,0,3.82.69,8.69,8.69,0,0,0,3.7-.71,5.25,5.25,0,0,0,2.26-1.91,4.73,4.73,0,0,0,.75-2.58A4.52,4.52,0,0,0,126.65,11.35Z"/><path class="cls-1" d="M130.22.4V2.86H136L136,19.29h3.41l0-16.42,5.84,0V.44Z"/><path class="cls-1" d="M160.63,2.94V.48l-12,0,0,18.88,12,0V16.87l-8.59,0L152,11l7.7,0V8.66l-7.7,0V2.92Z"/><path class="cls-1" d="M182.4.83l-6.73,14.83L168.9.8l-4.09,0-.05,18.59h3.38l0-13.93,5.94,14h3l6-13.91,0,13.93h3.41L186.49.84Z"/><path class="cls-1" d="M204.28,11.56a5.9,5.9,0,0,0-2.13-1.68,24.47,24.47,0,0,0-3.24-1.14c-1-.32-1.87-.61-2.47-.85a4.1,4.1,0,0,1-1.5-1,2.21,2.21,0,0,1-.58-1.6,2.23,2.23,0,0,1,.86-1.88,4.34,4.34,0,0,1,4.75.12,3.16,3.16,0,0,1,1.11,1.83h3.64a5.12,5.12,0,0,0-2.14-3.64,8.31,8.31,0,0,0-5.07-1.4A9.2,9.2,0,0,0,194,1a5.17,5.17,0,0,0-2.37,1.77,4.38,4.38,0,0,0-.84,2.67,4.36,4.36,0,0,0,.85,2.81,5.66,5.66,0,0,0,2.09,1.64A22.93,22.93,0,0,0,196.86,11c1.06.32,1.9.61,2.51.86a4.32,4.32,0,0,1,1.54,1,2.33,2.33,0,0,1,.62,1.67,2.47,2.47,0,0,1-.85,1.92,3.49,3.49,0,0,1-2.39.75,4.05,4.05,0,0,1-2.74-.9,3.28,3.28,0,0,1-1.16-2.11h-3.61A5.16,5.16,0,0,0,191.92,17,6.66,6.66,0,0,0,194.61,19a10.44,10.44,0,0,0,3.82.69,8.77,8.77,0,0,0,3.71-.71A5.16,5.16,0,0,0,204.39,17a4.73,4.73,0,0,0,.75-2.58A4.58,4.58,0,0,0,204.28,11.56Z"/></svg>